<?xml version="1.0" standalone="no"?>
<!DOCTYPE svg PUBLIC "-//W3C//DTD SVG 20010904//EN"
 "http://www.w3.org/TR/2001/REC-SVG-20010904/DTD/svg10.dtd">
<svg version="1.0" xmlns="http://www.w3.org/2000/svg"
 width="885.000000pt" height="779.000000pt" viewBox="0 0 885.000000 779.000000"
 preserveAspectRatio="xMidYMid meet">

<g transform="translate(0.000000,779.000000) scale(0.100000,-0.100000)"
fill="#FFFFFF" stroke="none">
<path d="M6762 7756 c-50 -45 -83 -114 -89 -185 -5 -50 -1 -69 31 -146 65
-160 208 -374 411 -615 304 -362 440 -557 573 -826 72 -144 85 -185 112 -336
39 -217 51 -342 57 -575 9 -374 -24 -676 -117 -1043 -84 -332 -278 -816 -360
-898 -37 -37 -55 -40 -70 -12 -13 24 -5 53 64 235 82 215 142 441 178 675 8
52 13 176 13 320 0 229 -1 237 -28 325 -83 265 -211 423 -400 494 -75 27 -109
27 -145 -4 -34 -29 -47 -70 -62 -210 -48 -435 -167 -784 -353 -1031 -41 -54
-127 -166 -191 -248 -228 -291 -450 -660 -516 -856 -129 -382 -247 -834 -281
-1080 -20 -143 -18 -479 5 -615 70 -426 252 -689 536 -777 99 -30 310 -32 439
-4 224 48 379 120 647 297 730 483 1178 1105 1400 1944 50 191 109 585 146
985 17 185 17 901 0 1085 -65 690 -213 1277 -432 1711 -226 448 -540 792
-1187 1297 l-162 127 -91 0 c-88 0 -91 -1 -128 -34z"/>
<path d="M6625 7288 c-41 -123 -48 -154 -52 -243 -9 -185 47 -333 193 -510 65
-79 111 -123 254 -239 230 -188 419 -356 570 -508 77 -77 140 -137 140 -134 0
3 -17 47 -37 98 -93 233 -269 495 -532 793 -253 286 -387 471 -473 652 -27 57
-52 103 -54 103 -3 0 -7 -6 -9 -12z"/>
<path d="M3909 7236 c-130 -37 -250 -138 -288 -241 -61 -163 -14 -356 116
-475 188 -172 513 -110 625 118 32 64 33 72 33 182 0 114 -1 117 -38 193 -70
142 -187 225 -328 232 -44 3 -92 -1 -120 -9z"/>
<path d="M1656 7140 c-77 -68 -82 -228 -17 -482 73 -280 168 -512 280 -678 98
-147 115 -197 132 -402 9 -104 9 -175 0 -300 -24 -330 -64 -538 -205 -1057
-67 -246 -74 -287 -53 -328 32 -62 110 -132 245 -222 78 -51 143 -99 146 -107
3 -8 19 -76 36 -152 54 -244 85 -327 146 -387 30 -31 41 -35 84 -35 104 0 130
65 130 328 l0 162 89 0 90 0 26 -87 c75 -251 119 -372 170 -473 38 -75 59 -90
125 -90 l56 0 27 55 c51 104 55 182 21 443 -8 62 -14 146 -14 187 l0 73 68 48
c109 77 262 239 262 277 0 29 -49 75 -143 132 -125 78 -171 117 -212 180 -86
135 -92 173 -44 271 l30 63 -25 63 c-97 247 -144 497 -130 704 l7 101 151 12
c195 16 338 44 525 103 l33 10 -7 82 c-4 44 -16 102 -27 128 -18 42 -24 47
-66 57 -59 13 -174 28 -277 36 -379 29 -661 129 -931 331 -182 136 -276 281
-445 686 -78 187 -123 269 -159 288 -37 20 -87 12 -124 -20z"/>
<path d="M5438 7099 c-71 -16 -140 -69 -318 -243 -257 -251 -493 -391 -815
-485 -106 -31 -294 -66 -560 -106 -270 -41 -384 -63 -531 -106 -103 -29 -241
-82 -315 -119 -40 -21 -41 -22 -20 -36 79 -56 318 -103 601 -119 181 -10 182
-10 208 -56 54 -93 55 -102 61 -469 3 -190 9 -350 13 -356 5 -8 28 -7 80 3
122 24 206 3 305 -75 66 -53 109 -115 128 -189 17 -63 15 -92 -16 -215 -21
-86 -18 -112 15 -102 11 3 94 55 183 115 219 146 261 156 330 83 l33 -35 0 66
c0 84 -17 123 -71 166 -81 63 -101 83 -206 209 -244 290 -331 481 -277 608 31
75 110 132 184 132 79 0 125 -36 245 -192 39 -50 80 -98 93 -106 l22 -14 -2
193 c-3 194 -3 194 24 249 35 68 59 95 228 246 337 302 530 547 560 714 12 61
7 95 -22 158 -33 69 -89 97 -160 81z"/>
<path d="M2715 6898 c-123 -23 -232 -106 -277 -208 -31 -71 -35 -183 -9 -268
20 -67 68 -144 115 -184 140 -121 395 -99 521 45 175 199 64 553 -192 613 -65
15 -87 16 -158 2z"/>
<path d="M6491 6661 c-18 -102 -9 -205 26 -291 4 -8 7 -17 8 -20 10 -28 25
-55 63 -110 44 -64 104 -118 172 -156 19 -10 37 -22 38 -26 2 -5 8 -8 13 -8 4
0 39 -14 76 -31 38 -17 93 -42 123 -55 30 -14 68 -31 83 -39 16 -8 33 -15 39
-15 6 0 38 -13 72 -29 33 -16 86 -40 116 -54 30 -14 89 -41 130 -61 l75 -35
-45 40 c-64 58 -93 79 -299 227 -64 45 -123 88 -131 95 -8 7 -31 23 -50 37
-19 13 -37 27 -40 30 -3 3 -21 17 -40 30 -61 43 -183 159 -245 234 -63 76
-135 208 -149 274 -4 17 -11 32 -15 32 -4 0 -13 -31 -20 -69z"/>
<path d="M6113 5878 c-18 -13 -33 -28 -33 -35 0 -6 -4 -13 -9 -15 -5 -1 -37
-57 -71 -123 -34 -66 -69 -133 -78 -150 -48 -94 -246 -317 -296 -334 -6 -2
-13 -7 -16 -11 -3 -4 -39 -23 -80 -42 -129 -61 -242 -71 -383 -34 -51 13 -174
70 -187 87 -3 3 -10 8 -16 10 -24 8 -184 152 -184 165 0 4 -8 14 -18 23 -10 9
-53 61 -94 116 -96 127 -129 160 -181 182 -45 20 -98 -7 -125 -61 -25 -48 -29
-137 -11 -183 24 -58 74 -159 86 -171 7 -8 18 -23 25 -35 17 -32 118 -168 147
-198 14 -15 51 -53 82 -85 66 -70 110 -109 164 -149 80 -58 93 -77 104 -146 5
-35 13 -143 16 -239 6 -187 18 -407 41 -750 12 -183 55 -541 75 -630 27 -117
86 -183 163 -182 59 1 108 58 122 142 3 14 9 49 14 79 5 29 10 156 9 282 0
288 9 429 27 429 8 0 14 -10 14 -22 0 -13 7 -126 15 -253 19 -300 36 -404 77
-487 14 -30 25 -38 54 -44 21 -4 49 -3 63 2 25 9 79 78 86 111 2 10 9 34 15
53 17 58 40 197 51 320 5 64 10 369 9 688 0 514 1 577 16 610 9 20 53 73 98
117 81 80 158 173 186 226 109 203 170 413 170 586 0 83 -10 114 -46 148 -33
31 -60 31 -101 3z"/>
<path d="M5175 5822 c-125 -43 -202 -130 -223 -253 -18 -102 29 -233 108 -298
65 -54 116 -75 187 -78 178 -6 319 112 331 277 8 116 -21 199 -101 283 -72 75
-201 105 -302 69z"/>
<path d="M650 5688 c-37 -26 -136 -193 -286 -483 -209 -407 -308 -727 -336
-1093 -34 -457 89 -1127 317 -1717 184 -477 510 -1065 750 -1355 461 -555
1048 -870 1819 -975 241 -33 517 18 676 125 101 68 160 142 202 252 30 79 39
143 39 268 0 137 -19 243 -71 402 -99 302 -239 521 -631 989 -197 235 -397
388 -814 624 -104 59 -216 125 -247 146 -63 43 -223 197 -285 274 -56 70 -169
242 -233 355 -67 117 -89 140 -132 140 -88 0 -210 -163 -238 -320 -19 -104 -6
-270 31 -382 88 -269 283 -574 540 -843 92 -97 107 -121 86 -142 -24 -24 -72
4 -197 119 -118 108 -133 124 -255 263 -363 413 -600 877 -720 1410 -25 111
-27 132 -22 270 9 238 42 397 167 815 83 276 118 439 127 587 6 120 -2 151
-53 212 -34 41 -116 81 -165 81 -21 0 -50 -9 -69 -22z"/>
<path d="M1023 5307 c-5 -160 -36 -301 -134 -602 -116 -359 -149 -496 -168
-684 -14 -129 -14 -248 -2 -236 5 6 27 55 49 110 22 55 52 127 67 160 32 71
184 376 195 390 27 34 123 245 146 320 24 77 28 108 29 210 0 141 -16 203 -75
292 -36 54 -93 123 -101 123 -2 0 -5 -37 -6 -83z"/>
<path d="M1307 4984 c-3 -3 -3 -22 0 -43 8 -60 -13 -190 -48 -293 -17 -51 -35
-98 -40 -103 -4 -6 -30 -53 -57 -105 -44 -86 -124 -216 -151 -247 -6 -7 -11
-15 -11 -19 0 -3 -8 -18 -19 -32 -26 -38 -101 -181 -101 -194 0 -6 10 0 23 14
12 14 44 49 70 79 27 30 104 111 170 180 178 183 237 259 252 325 2 10 9 37
14 59 17 66 12 140 -14 222 -24 74 -76 168 -88 157z"/>
<path d="M3829 4916 c-65 -21 -120 -67 -166 -139 -21 -34 -26 -54 -27 -112 -2
-122 51 -217 149 -272 43 -24 60 -28 125 -27 121 2 217 61 262 163 78 173 -67
403 -252 400 -30 -1 -71 -6 -91 -13z"/>
<path d="M4645 4612 c-17 -4 -122 -76 -165 -115 -40 -35 -253 -147 -322 -168
-32 -10 -66 -16 -213 -39 -178 -28 -348 10 -615 137 -100 48 -164 59 -180 33
-18 -28 -10 -82 23 -147 17 -36 38 -68 45 -70 6 -3 12 -10 12 -17 0 -12 54
-76 64 -76 3 0 25 -15 49 -32 24 -18 54 -41 68 -50 13 -10 43 -31 67 -48 24
-17 45 -37 49 -45 3 -8 10 -15 15 -15 13 0 76 -70 84 -92 3 -10 9 -18 13 -18
15 0 41 -85 46 -155 3 -38 -1 -153 -8 -255 -14 -179 -15 -284 -2 -495 10 -170
39 -276 93 -335 12 -14 22 -28 22 -33 0 -9 57 -4 85 8 72 31 105 154 105 396
0 143 12 219 36 219 20 0 24 -24 34 -246 5 -115 14 -227 21 -249 37 -131 130
-172 198 -86 40 51 61 151 67 321 3 74 9 180 14 235 5 55 9 183 10 284 1 102
3 188 5 191 2 4 5 82 6 174 l1 168 36 41 c52 58 71 77 77 77 19 0 188 205 233
282 20 34 25 58 26 115 0 40 -4 77 -10 83 -14 14 -65 27 -89 22z"/>
<path d="M4815 4473 c-16 -86 -64 -153 -220 -308 -189 -187 -183 -169 -166
-459 6 -110 13 -334 16 -496 5 -321 13 -386 59 -464 70 -120 209 -73 279 95
65 156 108 765 87 1242 -9 206 -30 410 -43 423 -2 3 -8 -12 -12 -33z"/>
</g>
</svg>
