<?xml version="1.0" standalone="no"?>
<!DOCTYPE svg PUBLIC "-//W3C//DTD SVG 20010904//EN"
 "http://www.w3.org/TR/2001/REC-SVG-20010904/DTD/svg10.dtd">
<svg version="1.0" xmlns="http://www.w3.org/2000/svg"
 width="3543.000000pt" height="782.000000pt" viewBox="0 0 3543.000000 782.000000"
 preserveAspectRatio="xMidYMid meet">

<g transform="translate(0.000000,782.000000) scale(0.100000,-0.100000)"
fill="#008000" stroke="none">
<path d="M6862 7810 c-65 -15 -148 -103 -171 -181 -20 -68 -13 -123 27 -217
78 -177 169 -311 429 -629 231 -284 283 -351 383 -505 89 -136 207 -360 238
-453 50 -149 91 -461 99 -751 10 -379 -26 -690 -122 -1059 -87 -333 -276 -805
-355 -884 -38 -38 -57 -39 -70 -6 -11 28 -13 21 75 255 75 203 135 432 167
645 8 57 13 178 13 330 l-1 240 -33 100 c-50 152 -113 266 -186 339 -74 73
-200 144 -273 153 -41 5 -52 2 -79 -21 -37 -31 -47 -67 -68 -246 -37 -307
-106 -553 -216 -775 -58 -119 -91 -168 -213 -325 -297 -380 -414 -555 -542
-815 -71 -144 -95 -208 -159 -420 -180 -590 -235 -890 -222 -1220 20 -510 191
-862 482 -990 191 -85 481 -68 774 45 148 57 466 261 695 444 131 104 380 353
481 481 335 419 574 957 664 1490 30 176 68 465 88 670 25 256 25 979 0 1210
-52 474 -137 891 -252 1230 -214 635 -531 1054 -1205 1594 -248 199 -322 254
-359 267 -41 15 -43 15 -89 4z"/>
<path d="M6614 7222 c-26 -77 -29 -101 -29 -212 0 -112 3 -133 28 -202 65
-175 179 -317 402 -501 274 -225 364 -305 553 -491 207 -204 204 -205 96 22
-107 227 -219 387 -510 727 -221 260 -265 315 -344 435 -62 94 -150 262 -150
286 0 7 -4 15 -9 18 -5 3 -22 -34 -37 -82z"/>
<path d="M3927 7240 c-171 -43 -307 -189 -323 -345 -12 -122 36 -263 122 -355
186 -199 536 -141 652 108 24 51 27 68 27 172 0 111 -1 117 -36 190 -68 142
-188 228 -330 235 -41 2 -91 0 -112 -5z"/>
<path d="M1666 7140 c-48 -43 -61 -87 -59 -205 1 -111 18 -200 68 -374 72
-246 161 -448 267 -603 101 -148 122 -242 122 -533 -1 -333 -47 -608 -193
-1145 -79 -287 -90 -350 -70 -386 33 -63 118 -140 251 -227 124 -80 139 -93
147 -125 6 -21 24 -100 41 -177 42 -186 82 -287 131 -336 34 -34 45 -39 87
-39 28 0 57 7 71 16 46 32 55 75 59 282 l4 192 89 0 88 0 21 -72 c86 -298 185
-544 228 -567 12 -6 45 -11 76 -11 l55 0 25 55 c43 89 51 186 31 350 -9 77
-19 187 -22 245 l-5 105 86 63 c93 69 209 188 234 240 15 30 14 34 -4 60 -11
15 -56 50 -99 79 -147 94 -195 135 -234 192 -91 134 -100 183 -50 276 17 32
28 65 26 74 -3 9 -24 68 -47 131 -81 225 -116 437 -104 626 l7 101 151 12
c164 12 330 43 470 85 l89 27 -7 80 c-7 83 -29 156 -52 175 -18 15 -119 30
-324 49 -365 35 -592 109 -844 276 -245 162 -341 295 -521 729 -86 207 -113
259 -151 289 -40 32 -95 28 -138 -9z"/>
<path d="M5434 7096 c-64 -20 -127 -69 -285 -222 -168 -161 -278 -247 -429
-333 -239 -137 -459 -201 -935 -271 -290 -43 -482 -82 -624 -129 -118 -39
-291 -114 -291 -126 0 -11 106 -55 182 -74 86 -22 286 -48 438 -56 181 -10
182 -10 208 -56 54 -93 55 -102 61 -469 3 -190 9 -350 13 -356 5 -7 32 -6 92
4 78 14 90 14 151 -3 74 -20 163 -79 208 -138 74 -97 88 -191 48 -330 -22 -78
-21 -117 4 -117 7 0 90 52 185 115 224 150 268 162 337 89 l33 -35 0 66 c0 91
-16 121 -99 189 -39 32 -113 109 -165 170 -228 271 -321 450 -302 580 14 90
110 176 199 176 73 0 133 -46 232 -180 55 -74 105 -130 117 -130 5 0 7 87 6
193 l-3 192 28 57 c22 45 55 82 145 165 503 462 682 711 643 889 -16 72 -60
130 -108 143 -45 13 -37 13 -89 -3z"/>
<path d="M2730 6899 c-121 -21 -228 -96 -277 -198 -25 -50 -28 -66 -28 -161 0
-97 3 -110 32 -170 38 -77 99 -142 168 -179 45 -24 60 -26 160 -26 100 0 116
3 172 29 74 34 144 104 174 173 32 74 36 185 11 269 -60 196 -216 296 -412
263z"/>
<path d="M6502 6699 c-17 -74 -15 -225 4 -290 35 -118 117 -238 199 -293 74
-49 219 -120 445 -217 107 -46 247 -109 310 -141 l115 -57 -60 56 c-73 67
-164 137 -355 273 -207 147 -306 227 -403 330 -99 104 -173 217 -207 319 -14
39 -27 71 -31 71 -3 0 -11 -23 -17 -51z"/>
<path d="M10445 5937 c-130 -34 -246 -130 -306 -252 -33 -68 -34 -72 -34 -200
0 -126 1 -132 32 -198 36 -76 116 -166 181 -204 149 -88 369 -85 511 6 75 48
75 49 21 110 l-49 53 -30 -21 c-100 -71 -225 -86 -325 -37 -233 114 -241 446
-14 572 48 26 62 29 148 29 87 0 100 -3 149 -30 l54 -30 43 50 c24 28 42 55
41 60 -5 14 -105 73 -147 86 -56 17 -219 20 -275 6z"/>
<path d="M15533 5935 c-210 -57 -343 -231 -343 -450 0 -139 49 -255 144 -343
102 -94 199 -127 357 -120 100 4 113 7 184 42 189 93 287 282 256 491 -20 136
-93 248 -214 326 -98 64 -262 86 -384 54z m262 -162 c53 -27 121 -102 148
-161 31 -68 29 -188 -2 -260 -32 -70 -122 -154 -187 -173 -196 -57 -380 76
-392 282 -9 152 65 271 203 326 47 19 181 11 230 -14z"/>
<path d="M20030 5939 c-75 -15 -151 -59 -221 -128 -78 -78 -114 -149 -131
-255 -23 -150 18 -282 122 -390 97 -101 203 -146 345 -146 134 0 250 45 341
134 l54 52 0 182 0 182 -160 0 -160 0 0 -70 0 -70 80 0 80 0 0 -79 c0 -78 -1
-79 -35 -110 -57 -49 -94 -64 -178 -69 -99 -6 -153 14 -223 80 -72 68 -98 131
-99 233 0 61 5 91 22 127 27 59 96 134 148 160 82 42 235 33 310 -18 l35 -24
38 41 c56 62 59 69 31 92 -86 71 -257 104 -399 76z"/>
<path d="M25165 5936 c-128 -32 -246 -128 -306 -251 -33 -68 -34 -72 -34 -200
0 -126 1 -132 32 -198 81 -171 237 -267 431 -267 152 0 252 41 347 141 215
226 150 607 -125 740 -100 48 -236 62 -345 35z m231 -153 c70 -24 155 -110
179 -183 41 -122 17 -244 -66 -334 -64 -70 -130 -100 -221 -99 -225 1 -371
250 -269 457 36 74 101 137 164 160 57 20 153 20 213 -1z"/>
<path d="M11010 5620 c0 -302 1 -322 22 -377 27 -73 105 -154 185 -191 52 -24
69 -27 168 -27 103 0 114 2 177 32 81 38 142 97 177 172 l26 56 3 328 3 327
-80 0 -80 0 -3 -303 c-3 -302 -3 -303 -29 -352 -37 -74 -92 -108 -178 -113
-76 -5 -125 14 -173 65 -55 58 -58 76 -58 403 l0 300 -80 0 -80 0 0 -320z"/>
<path d="M11960 5485 l0 -455 80 0 80 0 0 455 0 455 -80 0 -80 0 0 -455z"/>
<path d="M12320 5485 l0 -455 193 0 c105 0 221 5 257 10 147 23 279 122 343
257 30 65 32 74 32 189 0 118 0 121 -37 195 -69 139 -193 227 -351 248 -43 6
-159 11 -258 11 l-179 0 0 -455z m494 276 c108 -53 166 -150 166 -276 0 -91
-31 -167 -91 -226 -67 -65 -116 -81 -276 -86 l-133 -5 0 309 c0 170 3 313 8
317 4 5 64 6 134 4 118 -4 131 -7 192 -37z"/>
<path d="M13547 5888 c-13 -29 -95 -210 -182 -403 -87 -192 -168 -374 -181
-402 l-24 -53 84 0 83 0 36 80 36 80 246 0 247 0 36 -80 36 -80 83 0 c46 0 83
1 83 3 0 1 -92 205 -203 452 l-203 450 -77 3 -77 3 -23 -53z m113 -160 c0 -6
39 -98 86 -205 48 -107 84 -196 82 -199 -3 -2 -86 -3 -185 -2 l-181 3 74 165
c40 91 81 186 91 212 15 42 33 56 33 26z"/>
<path d="M14240 5485 l0 -455 193 0 c223 0 298 10 385 50 331 154 337 645 8
805 -90 44 -174 55 -407 55 l-179 0 0 -455z m412 304 c145 -31 234 -131 246
-275 13 -162 -74 -290 -224 -329 -35 -9 -102 -15 -166 -15 l-108 0 0 315 0
315 100 0 c54 0 123 -5 152 -11z"/>
<path d="M16660 5485 l0 -455 85 0 85 0 0 455 0 455 -85 0 -85 0 0 -455z"/>
<path d="M17030 5485 l0 -455 80 0 80 0 0 321 0 322 78 -110 c42 -61 145 -205
227 -321 l150 -212 83 0 82 0 0 455 0 455 -80 0 -80 0 0 -327 0 -328 -28 50
c-15 28 -117 175 -226 328 l-198 277 -84 0 -84 0 0 -455z"/>
<path d="M17940 5870 l0 -69 158 -3 157 -3 3 -382 2 -383 80 0 80 0 2 383 3
382 158 3 157 3 0 69 0 70 -400 0 -400 0 0 -70z"/>
<path d="M18870 5485 l0 -455 360 0 360 0 0 70 0 70 -280 0 -280 0 0 135 0
135 255 0 255 0 0 70 0 70 -255 0 -255 0 0 110 0 110 270 0 270 0 0 70 0 70
-350 0 -350 0 0 -455z"/>
<path d="M20720 5485 l0 -455 80 0 79 0 3 108 3 107 137 3 136 3 78 -111 78
-110 98 0 c54 0 98 2 98 5 0 3 -43 62 -95 132 l-95 126 43 30 c56 41 73 62
105 127 23 47 27 67 27 145 0 112 -25 173 -96 240 -94 88 -168 104 -481 105
l-198 0 0 -455z m448 305 c173 -38 219 -264 74 -365 -43 -30 -44 -30 -203 -33
l-159 -3 0 199 c0 109 3 202 7 205 10 11 227 8 281 -3z"/>
<path d="M21966 5908 c-7 -18 -97 -219 -200 -446 -102 -228 -186 -418 -186
-423 0 -6 33 -9 80 -7 l81 3 34 75 34 75 248 3 248 2 29 -67 c16 -38 34 -74
39 -80 6 -9 37 -13 89 -13 60 0 79 3 75 13 -14 35 -378 839 -391 866 -16 30
-18 31 -91 31 l-75 0 -14 -32z m104 -179 c0 -5 40 -99 89 -209 l89 -200 -188
0 -189 0 51 113 c28 61 69 158 92 213 22 56 44 100 49 97 4 -2 7 -8 7 -14z"/>
<path d="M22650 5485 l0 -455 350 0 350 0 0 70 0 70 -270 0 -270 0 0 385 0
385 -80 0 -80 0 0 -455z"/>
<path d="M23870 5486 l0 -456 193 0 c223 0 298 10 385 50 79 37 168 124 206
203 98 200 29 460 -154 577 -97 62 -150 72 -402 78 l-228 4 0 -456z m405 303
c75 -14 120 -37 167 -86 61 -63 83 -124 82 -223 -1 -101 -17 -142 -80 -210
-70 -74 -122 -93 -281 -98 l-133 -4 0 316 0 316 93 0 c51 0 120 -5 152 -11z"/>
<path d="M6096 5860 c-19 -22 -61 -90 -92 -152 -131 -263 -277 -434 -444 -522
-104 -55 -168 -69 -279 -64 -108 6 -192 33 -295 95 -76 46 -222 190 -306 303
-84 111 -154 185 -190 200 -40 17 -92 5 -124 -27 -53 -53 -58 -151 -13 -263
73 -180 309 -472 488 -603 57 -42 80 -66 92 -96 12 -30 20 -121 32 -383 30
-669 76 -1177 120 -1325 47 -158 198 -194 265 -63 30 59 38 148 45 490 3 173
9 335 13 360 8 45 8 45 15 -30 4 -41 12 -151 17 -245 18 -287 39 -423 78 -490
15 -24 27 -31 63 -36 79 -12 122 28 159 147 57 187 74 460 66 1083 l-7 504 25
51 c16 33 49 73 90 109 198 175 336 475 362 784 11 137 -26 213 -104 213 -34
0 -45 -6 -76 -40z"/>
<path d="M5169 5825 c-89 -32 -155 -93 -193 -175 -15 -34 -20 -66 -21 -130 0
-77 3 -92 33 -152 37 -76 83 -120 160 -156 47 -21 64 -24 141 -20 76 3 95 8
151 39 76 42 123 97 145 171 49 165 -38 360 -189 423 -44 19 -177 19 -227 0z"/>
<path d="M660 5688 c-37 -26 -128 -178 -271 -453 -321 -620 -409 -1069 -329
-1688 88 -684 338 -1384 730 -2042 191 -322 301 -467 499 -666 432 -431 932
-671 1601 -769 156 -23 236 -22 402 6 289 47 478 203 534 440 23 100 21 283
-5 411 -72 349 -222 618 -608 1085 -268 324 -417 444 -867 701 -262 148 -318
188 -432 301 -128 129 -238 282 -379 531 -40 70 -68 95 -106 95 -93 0 -211
-160 -240 -325 -18 -108 -5 -269 32 -379 88 -267 280 -568 528 -828 104 -110
119 -134 98 -155 -24 -24 -73 6 -195 118 -332 303 -624 710 -792 1103 -121
282 -199 566 -207 756 -9 223 27 425 152 845 94 320 113 396 131 525 32 245 7
326 -121 386 -63 30 -112 31 -155 2z"/>
<path d="M1032 5297 c-4 -134 -41 -302 -123 -557 -98 -306 -136 -444 -160
-579 -22 -128 -37 -381 -23 -381 5 0 31 57 59 127 52 135 176 393 292 608 39
72 80 159 92 195 69 200 68 387 -5 519 -27 50 -111 161 -122 161 -4 0 -8 -42
-10 -93z"/>
<path d="M27476 5168 c-8 -13 -89 -146 -180 -296 l-164 -272 201 2 202 3 202
285 c111 157 202 288 203 293 0 4 -101 7 -225 7 -222 0 -225 0 -239 -22z"/>
<path d="M1307 4888 c-8 -184 -53 -307 -207 -558 -153 -250 -210 -348 -236
-406 l-25 -59 43 50 c23 28 106 116 183 198 350 368 374 408 363 613 -5 98
-27 160 -83 239 l-32 46 -6 -123z"/>
<path d="M3850 4927 c-93 -26 -164 -88 -195 -171 -13 -34 -16 -65 -13 -123 5
-91 29 -144 89 -203 58 -56 111 -74 207 -68 133 8 226 75 259 187 39 136 -29
301 -151 363 -49 25 -137 32 -196 15z"/>
<path d="M4607 4596 c-20 -14 -59 -43 -87 -65 -121 -96 -304 -189 -410 -209
-30 -6 -81 -16 -113 -22 -89 -18 -234 -14 -329 9 -97 23 -148 42 -309 117
-123 56 -175 66 -203 38 -25 -25 -19 -76 19 -150 48 -96 98 -150 212 -230 54
-38 134 -105 179 -149 130 -129 140 -178 113 -528 -7 -90 -9 -221 -5 -322 11
-300 32 -402 102 -483 31 -37 39 -41 67 -35 62 12 88 32 115 91 24 54 26 69
33 267 6 208 19 289 42 266 6 -6 14 -97 18 -208 9 -218 18 -283 49 -342 25
-50 55 -71 101 -71 56 0 94 37 119 117 29 95 37 223 66 1115 l6 196 97 94
c119 117 216 236 249 306 20 45 24 65 20 124 -3 54 -8 73 -23 84 -30 22 -88
17 -128 -10z"/>
<path d="M4818 4451 c-26 -88 -88 -170 -229 -303 -170 -161 -166 -148 -151
-438 7 -118 14 -343 16 -500 5 -303 14 -376 52 -451 29 -59 57 -79 107 -79 97
0 176 100 212 268 44 210 71 774 55 1139 -9 195 -30 406 -42 418 -2 2 -11 -22
-20 -54z"/>
<path d="M15180 4453 c-328 -35 -612 -204 -720 -428 -50 -105 -63 -174 -58
-320 4 -114 8 -139 33 -200 77 -191 171 -282 399 -390 129 -61 178 -78 541
-180 149 -41 295 -88 325 -102 83 -41 165 -126 184 -193 42 -141 -38 -278
-209 -360 -120 -57 -197 -73 -350 -73 -280 1 -536 81 -765 240 l-85 60 -87
-168 c-49 -92 -88 -174 -88 -181 1 -18 123 -114 225 -174 341 -204 876 -261
1257 -134 399 133 599 376 598 728 -1 276 -119 453 -397 595 -105 54 -469 181
-633 222 -109 27 -252 76 -320 110 -111 56 -160 126 -160 227 1 102 66 190
184 248 228 112 660 55 971 -128 l50 -30 93 179 92 178 -42 28 c-268 170 -575
256 -895 251 -59 0 -124 -3 -143 -5z"/>
<path d="M17576 4449 c-238 -33 -463 -140 -593 -283 -62 -67 -96 -127 -131
-226 -22 -64 -26 -93 -26 -200 -1 -146 9 -189 70 -311 45 -88 119 -172 198
-225 87 -59 304 -154 441 -193 77 -22 230 -65 340 -96 220 -62 274 -85 348
-148 167 -139 112 -375 -113 -485 -113 -55 -206 -74 -365 -74 -281 1 -541 83
-762 242 l-82 59 -91 -177 -91 -177 43 -38 c168 -148 421 -264 669 -306 577
-97 1117 80 1297 426 55 107 75 192 76 328 0 132 -14 206 -59 300 -93 194
-267 307 -676 439 -129 41 -279 87 -334 101 -137 37 -291 98 -346 139 -60 45
-92 109 -92 186 0 131 96 231 278 287 81 24 313 24 437 0 120 -24 274 -79 387
-138 52 -27 97 -49 102 -49 8 0 179 332 179 347 0 14 -167 109 -266 152 -195
85 -363 120 -599 126 -93 2 -201 0 -239 -6z"/>
<path d="M21335 4446 c-565 -82 -1003 -491 -1122 -1046 -14 -66 -18 -129 -18
-280 0 -151 4 -214 18 -280 57 -265 172 -476 367 -670 191 -191 399 -305 663
-362 137 -30 464 -32 600 -5 542 109 956 524 1054 1057 26 142 23 412 -6 547
-56 264 -175 481 -371 674 -250 246 -544 365 -925 374 -109 3 -202 0 -260 -9z
m460 -441 c311 -91 548 -352 616 -680 23 -109 25 -283 5 -387 -58 -298 -272
-568 -534 -674 -121 -49 -178 -59 -332 -58 -127 1 -156 4 -233 27 -158 49
-265 115 -383 239 -88 93 -125 147 -175 252 -60 129 -82 236 -82 396 0 202 44
363 139 506 151 225 361 365 607 405 96 15 273 3 372 -26z"/>
<path d="M33835 4449 c-38 -5 -116 -20 -171 -34 -416 -100 -775 -429 -922
-847 -53 -148 -66 -241 -66 -448 0 -207 13 -300 66 -448 131 -374 438 -683
806 -816 154 -55 258 -70 487 -70 229 0 332 15 487 70 377 135 691 455 813
829 47 145 59 236 59 435 0 136 -4 208 -17 272 -54 267 -170 482 -367 678
-194 194 -405 307 -670 361 -111 23 -396 33 -505 18z m425 -438 c326 -86 570
-359 641 -716 6 -33 11 -112 11 -175 0 -258 -81 -463 -252 -643 -94 -99 -167
-153 -274 -202 -244 -112 -547 -96 -780 41 -93 54 -231 187 -296 283 -207 308
-206 743 3 1051 76 113 224 243 342 302 171 86 415 109 605 59z"/>
<path d="M10100 3120 l0 -1300 230 0 230 0 2 897 3 897 109 -170 c99 -154 763
-1114 771 -1114 6 0 777 1112 832 1199 l53 84 0 -896 0 -897 235 0 235 0 0
1300 0 1300 -204 0 -205 0 -468 -665 c-257 -365 -470 -664 -473 -665 -3 0
-217 299 -475 664 l-470 665 -202 0 -203 1 0 -1300z"/>
<path d="M13370 3120 l0 -1300 235 0 235 0 0 1300 0 1300 -235 0 -235 0 0
-1300z"/>
<path d="M19270 3120 l0 -1300 230 0 230 0 0 1300 0 1300 -230 0 -230 0 0
-1300z"/>
<path d="M23370 3120 l0 -1300 235 0 235 0 0 933 1 932 32 -54 c38 -63 269
-395 371 -532 39 -52 260 -361 491 -687 l420 -592 243 0 242 0 0 1300 0 1300
-235 0 -235 0 0 -937 0 -938 -41 75 c-85 155 -130 221 -685 1001 l-569 798
-252 1 -253 0 0 -1300z"/>
<path d="M26538 3137 c-317 -705 -580 -1290 -584 -1300 -6 -16 8 -17 231 -15
l238 3 101 223 100 222 716 0 715 -1 100 -224 99 -225 233 0 c155 0 233 3 233
10 0 6 -261 590 -579 1298 l-580 1287 -223 2 -223 3 -577 -1283z m828 711 c21
-66 199 -477 379 -878 75 -168 139 -311 142 -317 4 -10 -108 -13 -542 -13
-524 0 -546 1 -541 18 4 10 85 194 182 408 159 352 344 795 344 823 0 29 20 6
36 -41z"/>
<path d="M29040 3121 l0 -1301 230 0 230 0 0 310 0 310 343 0 c188 0 365 3
393 6 l51 6 217 -303 c120 -167 223 -310 230 -317 9 -9 77 -12 293 -10 l282 3
-280 372 c-153 205 -279 376 -279 380 0 5 28 23 63 40 191 99 348 303 423 549
26 82 28 103 28 264 1 141 -3 190 -18 250 -85 334 -322 581 -653 679 -177 53
-194 54 -895 58 l-658 4 0 -1300z m1315 875 c200 -59 353 -208 411 -401 12
-41 18 -93 18 -165 0 -72 -6 -124 -18 -165 -58 -195 -213 -344 -416 -402 -58
-16 -108 -18 -455 -18 l-390 0 -3 575 c-1 316 0 581 3 588 4 11 78 13 397 9
337 -3 402 -6 453 -21z"/>
<path d="M31750 3120 l0 -1300 230 0 230 0 0 1300 0 1300 -230 0 -230 0 0
-1300z"/>
</g>
</svg>
